<svg xmlns="http://www.w3.org/2000/svg" xmlns:xlink="http://www.w3.org/1999/xlink" viewBox="0 0 1500 750" shape-rendering="geometricPrecision"><defs><style>.a{fill:#14b9e6;}.b{fill:#fff;}.c{fill:#ddd;}.d{fill:#bbb;}.e{fill:url(#a);}</style><linearGradient id="a" x1="402.09" y1="427.62" x2="398.28" y2="431.42" gradientUnits="userSpaceOnUse"><stop offset="0" stop-color="#ddd" stop-opacity="0.5"/><stop offset="0.21" stop-color="#d2d2d2" stop-opacity="0.58"/><stop offset="0.64" stop-color="#c1c1c1" stop-opacity="0.71"/><stop offset="1" stop-color="#bbb" stop-opacity="0.75"/></linearGradient></defs><rect class="a" width="1500" height="750"/><path class="b" d="M576.49,353.54c-3.16,1.44-8.55,2.49-14.86,2.49-18.8,0-31.68-10.12-37.6-23.92-20.9-3.55-34.84-22-34.84-50,0-31.16,17.22-49.83,42.07-49.83s42.2,18.67,42.2,49.83c0,27.21-13.28,45.35-33.13,49.56,4.34,8.15,13.28,11.83,23,11.83a35.43,35.43,0,0,0,10.25-1.44Zm-45.23-33.4c16,0,26.56-14.59,26.56-38,0-22.75-10.52-36.55-26.56-36.55s-26.42,13.8-26.42,36.55C504.84,305.55,515.22,320.14,531.26,320.14Z"/><path class="b" d="M591.34,304.1V258.61h15.12v43.65c0,12.49,3.55,17.36,12.1,17.36,6.7,0,11.3-3.16,17.35-10.78V258.61H651v72.31H638.67L637.49,320h-.39c-6.58,7.63-13.68,12.62-23.67,12.62C598.05,332.63,591.34,322.51,591.34,304.1Z"/><path class="b" d="M671.67,236.13c0-5.39,4.08-8.94,9.6-8.94s9.73,3.55,9.73,8.94-4.21,8.94-9.73,8.94S671.67,241.39,671.67,236.13Zm2.11,22.48h15v72.31h-15Z"/><path class="b" d="M756.47,335.66l.66-12.49c-5.52,5.39-12.89,9.46-20.64,9.46-18.15,0-29.85-13.8-29.85-37.73,0-23.53,14.86-38.13,31-38.13,8.15,0,14.07,3,20.11,8.81h.53l1.32-7h12V360.24H756.47Zm0-24.33V276c-5.39-4.87-10.52-6.57-15.91-6.57-10.12,0-18.27,9.59-18.27,25.24,0,16.43,6.44,25.5,17.75,25.5C746.08,320.14,751.21,317.38,756.47,311.33Z"/><path class="b" d="M790.39,282.8c0-31.55,19.2-50.48,43.65-50.48a37.32,37.32,0,0,1,27.48,12.23l-8.29,9.73c-5-5.13-11-8.68-18.93-8.68-16.7,0-28.26,13.93-28.26,36.68,0,23,10.78,37.07,27.87,37.07,8.8,0,15.64-3.94,21.43-10.25l8.15,9.6c-7.76,8.94-17.62,13.93-30.11,13.93C809.06,332.63,790.39,314.49,790.39,282.8Z"/><path class="b" d="M874.14,294.9c0-24.19,16.17-38.13,34.05-38.13s34,13.94,34,38.13c0,23.93-16.17,37.73-34,37.73S874.14,318.83,874.14,294.9Zm52.59,0c0-15.38-7.1-25.64-18.54-25.64s-18.41,10.26-18.41,25.64,7.1,25.37,18.41,25.37S926.73,310.15,926.73,294.9Z"/><path class="b" d="M960,258.61h12.36l1.18,10.13h.39c6.18-6.58,13.41-12,22.35-12,10.78,0,16.83,5,20,13.28,7.1-7.62,14.46-13.28,23.53-13.28,15.12,0,22.22,10.26,22.22,28.66v45.49h-15.12V287.27c0-12.48-3.94-17.48-12.09-17.48-5,0-10.26,3.29-16.31,9.86v51.27h-15.12V287.27c0-12.48-3.81-17.48-12.09-17.48-4.87,0-10.26,3.29-16.3,9.86v51.27H960Z"/><path class="b" d="M1083.83,258.61h12.36l1.19,7.89h.39c6.31-5.26,14.2-9.73,22.22-9.73,18.4,0,28.66,14.6,28.66,36.82,0,24.84-14.86,39-31.16,39-6.44,0-12.88-2.89-19.06-8.15l.39,12.36v23.4h-15ZM1133,293.85c0-15.12-4.86-24.45-17-24.45-5.66,0-11,2.89-17.23,8.8v35.37c5.65,4.86,11.31,6.57,15.78,6.57C1125.12,320.14,1133,310.81,1133,293.85Z"/><path class="b" d="M1161.53,294.9c0-24.19,16.17-38.13,34-38.13s34.05,13.94,34.05,38.13c0,23.93-16.17,37.73-34.05,37.73S1161.53,318.83,1161.53,294.9Zm52.59,0c0-15.38-7.1-25.64-18.54-25.64s-18.4,10.26-18.4,25.64,7.1,25.37,18.4,25.37S1214.12,310.15,1214.12,294.9Z"/><path class="b" d="M1239.37,322.64l7.1-9.73c6.44,5.13,12.75,8.28,20.5,8.28,8.68,0,12.76-4.2,12.76-9.73,0-6.57-8.15-9.46-16-12.48-9.6-3.69-20.64-8.81-20.64-21s9.73-21.17,25.63-21.17c9.73,0,17.62,4,23.54,8.55l-7.1,9.33c-5-3.68-10.13-6.31-16.17-6.31-7.89,0-11.57,4-11.57,8.94,0,6.18,7.49,8.55,15.38,11.44,10.12,3.81,21.3,8.28,21.3,22,0,12.09-9.6,21.95-27.48,21.95A44.48,44.48,0,0,1,1239.37,322.64Z"/><path class="b" d="M1305,294.9c0-23.53,16-38.13,33-38.13,19.19,0,29.45,13.81,29.45,34.32a38.58,38.58,0,0,1-.66,7.62h-46.93c1.18,13.81,9.86,22.09,22.35,22.09a30.69,30.69,0,0,0,17.22-5.39l5.26,9.6a43.88,43.88,0,0,1-24.45,7.62C1320.62,332.63,1305,318.7,1305,294.9Zm49.43-6.57c0-12.49-5.65-19.72-16.17-19.72-9.07,0-17.09,7-18.53,19.72Z"/><polygon class="b" points="318.98 336.82 366.27 451 433.15 384.12 318.98 336.82"/><polygon class="c" points="318.98 336.82 396.51 420.76 402.94 436.08 402.94 414.33 318.98 336.82"/><polygon class="d" points="392.97 424.3 396.51 420.76 402.94 436.08 392.97 424.3"/><polygon class="e" points="402.94 428.47 397.43 422.96 402.94 436.08 402.94 428.47"/><path class="b" d="M314.08,401.17A114.21,114.21,0,0,1,194.57,213c25.83-25.83,61.85-37.76,99-32a110.83,110.83,0,0,1,48.57,20.12c30.31,22.22,47.35,56.12,47.35,92.65A114.27,114.27,0,0,1,382.92,332a14.22,14.22,0,0,0,8,17.87h0a14.3,14.3,0,0,0,18.93-8.49A144.86,144.86,0,0,0,414.6,262,140.55,140.55,0,0,0,305.85,154.17C202.61,132.77,113.27,223,136.21,326.39A140.25,140.25,0,0,0,241.67,432.6c29.13,6.65,57.22,4.38,82.1-4.6a14.3,14.3,0,0,0,8.42-18.91h0A14.31,14.31,0,0,0,314.08,401.17Z"/><path class="b" d="M183.31,542.17h-14v-2h30.42v2h-14v41.58h-2.34Z"/><path class="b" d="M208,536.11h2.16v21.18c3.36-3.42,6.66-5.94,11-5.94,6.48,0,9.54,3.9,9.54,12.06v20.34h-2.16v-20c0-7-2.22-10.38-7.62-10.38-3.9,0-6.78,2.1-10.8,6.24v24.18H208Z"/><path class="b" d="M239.71,568c0-10.32,6.6-16.68,13.62-16.68,7.32,0,11.94,5.22,11.94,14.58a13.78,13.78,0,0,1-.12,2.16H242c0,8.34,4.86,14.46,12.3,14.46a14.15,14.15,0,0,0,8.7-2.88l1,1.86a17.17,17.17,0,0,1-9.78,3C246.19,584.53,239.71,578.35,239.71,568Zm23.46-1.92c0-8.58-3.9-12.78-9.84-12.78-5.64,0-10.68,4.8-11.34,12.78Z"/><path class="b" d="M298.69,538.21a8.64,8.64,0,0,0-3.84-1c-3.6,0-5.16,2.76-5.16,7.5v7.38h7.5v2h-7.5v29.64h-2.1V554.11h-4.38v-1.68l4.38-.3v-7.68c0-6.18,2.76-9.12,7.32-9.12a11.32,11.32,0,0,1,4.44,1Z"/><path class="b" d="M300.37,576c0-7,6.42-10.32,20.64-11.94.18-5.1-1.14-10.68-7.68-10.68A17.23,17.23,0,0,0,303,557.17l-1.08-1.74a20.57,20.57,0,0,1,11.52-4.08c7.44,0,9.72,5.52,9.72,11.94v20.46h-1.8l-.3-4.2h-.18c-3.24,2.64-7.2,5-11.4,5C304.57,584.53,300.37,582,300.37,576ZM321,577.21V565.87c-13.74,1.5-18.42,4.68-18.42,10,0,4.86,3.24,6.66,7.08,6.66S316.87,580.75,321,577.21Z"/><path class="b" d="M330.79,580.21l1.38-1.74a14.62,14.62,0,0,0,10.26,4.08c5.28,0,8-3.06,8-6.66,0-4.14-4.2-6-7.92-7.32-4.8-1.74-10.2-3.54-10.2-9,0-4.38,3.42-8.22,10-8.22a14.29,14.29,0,0,1,8.76,3.24l-1.26,1.62a12.24,12.24,0,0,0-7.68-2.88c-5.22,0-7.56,3-7.56,6.12,0,3.78,3.84,5.22,7.62,6.66,5,1.92,10.5,3.48,10.5,9.66,0,4.68-3.66,8.76-10.32,8.76A18.09,18.09,0,0,1,330.79,580.21Z"/><path class="b" d="M360.73,575.35V554.11h-5v-1.68l5-.3.24-9.24h1.86v9.24h9.36v2h-9.36v21.54c0,4.08.9,6.9,5.52,6.9a10.75,10.75,0,0,0,4-1l.72,1.8a18.48,18.48,0,0,1-4.92,1.2C362.29,584.53,360.73,580.87,360.73,575.35Z"/><path class="b" d="M378.31,592.09a9.07,9.07,0,0,0,4.8-8,3.42,3.42,0,0,1-.78.06,2.33,2.33,0,0,1-2.46-2.46,2.36,2.36,0,0,1,2.46-2.46c1.74,0,2.94,1.62,2.94,4.2a12,12,0,0,1-6.18,10.26Z"/><path class="b" d="M404.41,580.21l1.38-1.74a14.62,14.62,0,0,0,10.26,4.08c5.28,0,8-3.06,8-6.66,0-4.14-4.2-6-7.92-7.32-4.8-1.74-10.2-3.54-10.2-9,0-4.38,3.42-8.22,10-8.22a14.29,14.29,0,0,1,8.76,3.24l-1.26,1.62a12.24,12.24,0,0,0-7.68-2.88c-5.22,0-7.56,3-7.56,6.12,0,3.78,3.84,5.22,7.62,6.66,5,1.92,10.5,3.48,10.5,9.66,0,4.68-3.67,8.76-10.32,8.76A18.09,18.09,0,0,1,404.41,580.21Z"/><path class="b" d="M433.81,541.87a2.19,2.19,0,0,1,2.27-2.34,2.27,2.27,0,0,1,2.35,2.34,2.29,2.29,0,0,1-2.35,2.28A2.2,2.2,0,0,1,433.81,541.87ZM435,552.13h2.16v31.62H435Z"/><path class="b" d="M449.65,552.13h1.8l.35,5h.12c2.88-3.3,6.54-5.82,10-5.82,5.16,0,7.68,2.64,8.7,6.6,3.72-4.08,7.26-6.6,10.86-6.6,6.18,0,9.36,3.9,9.36,12.06v20.34h-2.1v-20c0-7-2.4-10.38-7.5-10.38-3.12,0-6.24,2.1-10,6.24v24.18h-2.1v-20c0-7-2.34-10.38-7.44-10.38-3.05,0-6.35,2.1-10,6.24v24.18h-2.15Z"/><path class="b" d="M503,552.13h1.8l.36,4.08h.12c3.12-2.46,6.9-4.86,10.86-4.86,8.58,0,12.72,6.36,12.72,16.14,0,10.74-6.48,17-14,17-3,0-6.3-1.44-9.66-4v17.76H503Zm2.16,26.16c3.72,3.12,7.32,4.26,9.84,4.26,6.72,0,11.58-6.24,11.58-15.06,0-8-2.88-14.16-10.62-14.16-3.24,0-6.78,2-10.8,5.46Z"/><path class="b" d="M538.68,580.21v-44.1h2.16v44.46c0,1.32.48,2,1.32,2a5.37,5.37,0,0,0,1.14-.12l.42,1.86a6.5,6.5,0,0,1-1.8.24C539.88,584.53,538.68,583.27,538.68,580.21Z"/><path class="b" d="M551.16,568c0-10.32,6.6-16.68,13.62-16.68,7.32,0,11.94,5.22,11.94,14.58a13.78,13.78,0,0,1-.12,2.16H553.44c0,8.34,4.86,14.46,12.3,14.46a14.15,14.15,0,0,0,8.7-2.88l1,1.86a17.17,17.17,0,0,1-9.78,3C557.64,584.53,551.16,578.35,551.16,568Zm23.46-1.92c0-8.58-3.9-12.78-9.84-12.78-5.64,0-10.68,4.8-11.34,12.78Z"/><path class="b" d="M582.42,592.09a9.07,9.07,0,0,0,4.8-8,3.42,3.42,0,0,1-.78.06,2.33,2.33,0,0,1-2.46-2.46,2.36,2.36,0,0,1,2.46-2.46c1.74,0,2.94,1.62,2.94,4.2a12,12,0,0,1-6.18,10.26Z"/><path class="b" d="M610.26,576c0-7,6.42-10.32,20.64-11.94.18-5.1-1.14-10.68-7.68-10.68a17.23,17.23,0,0,0-10.32,3.84l-1.08-1.74a20.57,20.57,0,0,1,11.52-4.08c7.44,0,9.72,5.52,9.72,11.94v20.46h-1.8l-.3-4.2h-.18c-3.24,2.64-7.2,5-11.4,5C614.46,584.53,610.26,582,610.26,576Zm20.64,1.26V565.87c-13.74,1.5-18.42,4.68-18.42,10,0,4.86,3.24,6.66,7.08,6.66S626.76,580.75,630.9,577.21Z"/><path class="b" d="M644.76,552.13h1.8l.36,5H647c3.24-3.3,6.54-5.82,10.92-5.82,6.48,0,9.54,3.9,9.54,12.06v20.34h-2.16v-20c0-7-2.22-10.38-7.62-10.38-3.9,0-6.78,2.1-10.8,6.24v24.18h-2.16Z"/><path class="b" d="M680.28,575.35V554.11h-5v-1.68l5-.3.24-9.24h1.86v9.24h9.36v2h-9.36v21.54c0,4.08.9,6.9,5.52,6.9a10.75,10.75,0,0,0,4-1l.72,1.8a18.48,18.48,0,0,1-4.92,1.2C681.84,584.53,680.28,580.87,680.28,575.35Z"/><path class="b" d="M698.46,541.87a2.19,2.19,0,0,1,2.28-2.34,2.27,2.27,0,0,1,2.34,2.34,2.29,2.29,0,0,1-2.34,2.28A2.21,2.21,0,0,1,698.46,541.87Zm1.14,10.26h2.16v31.62H699.6Z"/><path class="b" d="M710.64,566.29H725v2.1H710.64Z"/><path class="b" d="M731,568c0-10.2,6.48-16.68,14.16-16.68,3.84,0,6.48,1.44,9.72,4l-.18-5.94V536.11h2.16v47.64H755l-.3-4.2h-.12c-2.64,2.64-6.18,5-10.56,5C736.14,584.53,731,578.71,731,568Zm23.7,9.06V557.65c-3.48-3.12-6.36-4.32-9.66-4.32-6.66,0-11.76,6.54-11.76,14.7,0,8.64,4,14.52,11,14.52C747.9,582.55,751.2,580.57,754.68,577.09Z"/><path class="b" d="M768.3,541.87a2.19,2.19,0,0,1,2.28-2.34,2.27,2.27,0,0,1,2.34,2.34,2.29,2.29,0,0,1-2.34,2.28A2.21,2.21,0,0,1,768.3,541.87Zm1.14,10.26h2.16v31.62h-2.16Z"/><path class="b" d="M780.06,580.21l1.38-1.74a14.62,14.62,0,0,0,10.26,4.08c5.28,0,8-3.06,8-6.66,0-4.14-4.2-6-7.92-7.32-4.8-1.74-10.2-3.54-10.2-9,0-4.38,3.42-8.22,10-8.22a14.29,14.29,0,0,1,8.76,3.24L799,556.21a12.24,12.24,0,0,0-7.68-2.88c-5.22,0-7.56,3-7.56,6.12,0,3.78,3.84,5.22,7.62,6.66,5,1.92,10.5,3.48,10.5,9.66,0,4.68-3.66,8.76-10.32,8.76A18.09,18.09,0,0,1,780.06,580.21Z"/><path class="b" d="M810,575.35V554.11h-5v-1.68l5-.3.24-9.24h1.86v9.24h9.36v2H812.1v21.54c0,4.08.9,6.9,5.52,6.9a10.75,10.75,0,0,0,4-1l.72,1.8a18.48,18.48,0,0,1-4.92,1.2C811.56,584.53,810,580.87,810,575.35Z"/><path class="b" d="M828.78,572.47V552.13h2.16v20.1c0,7,2.22,10.32,7.56,10.32,3.9,0,6.84-2.1,10.74-6.78V552.13h2.16v31.62h-1.86l-.24-5.4h-.12c-3.18,3.66-6.48,6.18-10.86,6.18C831.84,584.53,828.78,580.69,828.78,572.47Z"/><path class="b" d="M863.94,552.13h1.8l.36,5.94h.12c2.1-3.84,5.16-6.72,8.94-6.72a6.28,6.28,0,0,1,3.06.66l-.54,2a6.08,6.08,0,0,0-2.82-.54c-2.82,0-6.3,2.22-8.76,8.46v21.84h-2.16Z"/><path class="b" d="M886.56,580.57h-.18l-.3,3.18h-1.8V536.11h2.16v14l-.18,6.36c3.3-2.76,7.2-5.16,11.16-5.16,8.58,0,12.72,6.36,12.72,16.14,0,10.74-6.48,17-14,17C893.1,584.53,889.5,583,886.56,580.57Zm21.3-13.08c0-8-2.88-14.16-10.62-14.16-3.24,0-6.9,2-10.8,5.46v19.5c3.6,3.12,7.32,4.26,9.84,4.26C903,582.55,907.86,576.31,907.86,567.49Z"/><path class="b" d="M929.94,577.93l1.5-1.56a17,17,0,0,0,13,6.06c7,0,11.4-3.78,11.4-9.24,0-5.82-3.66-7.62-8-9.6l-6.66-3c-3.78-1.68-8.88-4.26-8.88-10.68s5.28-10.5,12.36-10.5a16,16,0,0,1,11.88,5.16l-1.38,1.5a14.06,14.06,0,0,0-10.5-4.56c-6.06,0-10.08,3.24-10.08,8.16,0,5.46,4.56,7.44,7.62,8.82l6.66,3c4.92,2.22,9.24,4.8,9.24,11.52s-5.4,11.52-13.62,11.52A18.56,18.56,0,0,1,929.94,577.93Z"/><path class="b" d="M967.5,540.19h2.33L989,571.93l5,8.58h.3c-.24-4.2-.36-8.22-.36-12.3v-28h2.16v43.56h-2.4L974.58,552l-5-8.58h-.24c.12,4.08.24,7.8.24,11.94v28.38h-2.1Z"/><path class="b" d="M1005.84,577.93l1.5-1.56a17,17,0,0,0,13,6.06c7,0,11.39-3.78,11.39-9.24,0-5.82-3.66-7.62-8-9.6l-6.65-3c-3.78-1.68-8.88-4.26-8.88-10.68s5.28-10.5,12.36-10.5a16,16,0,0,1,11.88,5.16l-1.38,1.5a14.09,14.09,0,0,0-10.5-4.56c-6.06,0-10.08,3.24-10.08,8.16,0,5.46,4.56,7.44,7.62,8.82l6.66,3c4.92,2.22,9.23,4.8,9.23,11.52s-5.39,11.52-13.61,11.52A18.56,18.56,0,0,1,1005.84,577.93Z"/><path class="b" d="M1053.53,568c0-10.62,6.6-16.68,14.22-16.68a12.91,12.91,0,0,1,9.24,4l-1.38,1.56a11.32,11.32,0,0,0-7.86-3.54c-6.66,0-11.94,6-11.94,14.7s4.74,14.52,11.94,14.52a13,13,0,0,0,8.76-3.78l1.26,1.56a15.14,15.14,0,0,1-10.08,4.2C1059.65,584.53,1053.53,578.47,1053.53,568Z"/><path class="b" d="M1082,568c0-10.62,6.48-16.68,14-16.68s14,6.06,14,16.68c0,10.44-6.48,16.5-14,16.5S1082,578.47,1082,568Zm25.86,0c0-8.7-5.1-14.7-11.82-14.7s-11.76,6-11.76,14.7,5,14.52,11.76,14.52S1107.83,576.67,1107.83,568Z"/><path class="b" d="M1119.89,552.13h1.8l.36,5h.12c2.88-3.3,6.54-5.82,10-5.82,5.16,0,7.68,2.64,8.7,6.6,3.72-4.08,7.26-6.6,10.86-6.6,6.18,0,9.36,3.9,9.36,12.06v20.34H1159v-20c0-7-2.4-10.38-7.5-10.38-3.12,0-6.24,2.1-10,6.24v24.18h-2.1v-20c0-7-2.34-10.38-7.44-10.38-3.06,0-6.36,2.1-10,6.24v24.18h-2.16Z"/><path class="b" d="M1173.23,552.13h1.8l.36,4.08h.12c3.12-2.46,6.9-4.86,10.86-4.86,8.58,0,12.72,6.36,12.72,16.14,0,10.74-6.48,17-14,17-3,0-6.3-1.44-9.66-4v17.76h-2.16Zm2.16,26.16c3.72,3.12,7.32,4.26,9.84,4.26,6.72,0,11.58-6.24,11.58-15.06,0-8-2.88-14.16-10.62-14.16-3.24,0-6.78,2-10.8,5.46Z"/><path class="b" d="M1206.17,568c0-10.62,6.48-16.68,14-16.68s14,6.06,14,16.68c0,10.44-6.48,16.5-14,16.5S1206.17,578.47,1206.17,568Zm25.86,0c0-8.7-5.1-14.7-11.82-14.7s-11.76,6-11.76,14.7,5,14.52,11.76,14.52S1232,576.67,1232,568Z"/><path class="b" d="M1240,580.21l1.38-1.74a14.62,14.62,0,0,0,10.26,4.08c5.28,0,8-3.06,8-6.66,0-4.14-4.2-6-7.92-7.32-4.8-1.74-10.2-3.54-10.2-9,0-4.38,3.42-8.22,10-8.22a14.29,14.29,0,0,1,8.76,3.24l-1.26,1.62a12.24,12.24,0,0,0-7.68-2.88c-5.22,0-7.56,3-7.56,6.12,0,3.78,3.84,5.22,7.62,6.66,5,1.92,10.5,3.48,10.5,9.66,0,4.68-3.66,8.76-10.32,8.76A18.09,18.09,0,0,1,1240,580.21Z"/><path class="b" d="M1267.79,568c0-10.32,6.6-16.68,13.62-16.68,7.32,0,11.94,5.22,11.94,14.58a13.78,13.78,0,0,1-.12,2.16h-23.16c0,8.34,4.86,14.46,12.3,14.46a14.15,14.15,0,0,0,8.7-2.88l1,1.86a17.17,17.17,0,0,1-9.78,3C1274.27,584.53,1267.79,578.35,1267.79,568Zm23.46-1.92c0-8.58-3.9-12.78-9.84-12.78-5.64,0-10.68,4.8-11.34,12.78Z"/><path class="b" d="M1302.17,552.13h1.8l.36,5.94h.12c2.1-3.84,5.16-6.72,8.94-6.72a6.28,6.28,0,0,1,3.06.66l-.54,2a6.08,6.08,0,0,0-2.82-.54c-2.82,0-6.3,2.22-8.76,8.46v21.84h-2.16Z"/><path class="b" d="M1322,582a2.44,2.44,0,1,1,4.86,0,2.43,2.43,0,1,1-4.86,0Zm1.32-38.28v-4.14h2.22v4.14l-.24,28.68h-1.74Z"/></svg>